# xmcd
#
# Track frame offsets: 
#        150
#        12977
#        24919
#        38084
#        52089
#        63724
#        76394
#        86941
#        93603
#        104263
#        117668
#        132333
#        143195
#        158977
#
# Disc length: 2248 seconds
#
# Revision: 0
# Processed by: cddbd v1.5.2PL0 Copyright (c) Steve Scherf et al.
# Submitted via: ExactAudioCopy v1.0b1
#
DISCID=c508c60e
DTITLE=J.J.Cale - Rewind
DYEAR=2007
DGENRE=Blues
TTITLE0=Guess I Lose
TTITLE1=Waymore's Blues
TTITLE2=Rollin'
TTITLE3=Golden Ring
TTITLE4=My Cricket
TTITLE5=Since You Said Goodbye
TTITLE6=Seven Day Woman
TTITLE7=Bluebird
TTITLE8=My Baby And Me
TTITLE9=Lawdy Mama
TTITLE10=Blue Sunday
TTITLE11=Out Of Style
TTITLE12=Ooh La La
TTITLE13=All Mama's Children
EXTD=
EXTT0=
EXTT1=
EXTT2=
EXTT3=
EXTT4=
EXTT5=
EXTT6=
EXTT7=
EXTT8=
EXTT9=
EXTT10=
EXTT11=
EXTT12=
EXTT13=
PLAYORDER=
